<?xml version="1.0" standalone="no"?><!DOCTYPE svg PUBLIC "-//W3C//DTD SVG 1.1//EN" "http://www.w3.org/Graphics/SVG/1.1/DTD/svg11.dtd"><svg t="1714187162061" class="icon" viewBox="0 0 1024 1024" version="1.1" xmlns="http://www.w3.org/2000/svg" p-id="3379" width="48" height="48" xmlns:xlink="http://www.w3.org/1999/xlink"><path d="M0 512c0 282.763636 229.236364 512 512 512s512-229.236364 512-512S794.763636 0 512 0 0 229.236364 0 512z" fill="#F9F9F9" p-id="3380"></path><path d="M477.090909 285.090909a192 192 0 1 0 0 384 192 192 0 0 0 0-384z m0 34.909091a157.090909 157.090909 0 1 1 0 314.181818 157.090909 157.090909 0 0 1 0-314.181818z" fill="#5693FF" p-id="3381"></path><path d="M598.155636 590.917818l131.653819 131.653818-24.669091 24.669091-131.677091-131.630545z" fill="#5693FF" p-id="3382"></path></svg>