<?xml version="1.0" standalone="no"?><!DOCTYPE svg PUBLIC "-//W3C//DTD SVG 1.1//EN" "http://www.w3.org/Graphics/SVG/1.1/DTD/svg11.dtd"><svg t="1714183550468" class="icon" viewBox="0 0 1024 1024" version="1.1" xmlns="http://www.w3.org/2000/svg" p-id="9648" width="32" height="32" xmlns:xlink="http://www.w3.org/1999/xlink"><path d="M44.521739 512C44.521739 770.181565 253.818435 979.478261 512 979.478261s467.478261-209.296696 467.478261-467.478261S770.181565 44.521739 512 44.521739 44.521739 253.818435 44.521739 512z" fill="#FDDF6D" p-id="9649"></path><path d="M512 22.26087c270.469565 0 489.73913 219.269565 489.73913 489.73913s-219.269565 489.73913-489.73913 489.73913-489.73913-219.269565-489.73913-489.73913S241.530435 22.26087 512 22.26087z m0 44.521739c-245.893565 0-445.217391 199.323826-445.217391 445.217391s199.323826 445.217391 445.217391 445.217391 445.217391-199.323826 445.217391-445.217391-199.323826-445.217391-445.217391-445.217391z" fill="#1E1E1E" p-id="9650"></path><path d="M501.314783 801.391304c-105.293913 0-190.597565-83.656348-190.597566-186.813217h381.150609c0 103.15687-85.348174 186.813217-190.553043 186.813217zM414.141217 367.393391a19.366957 19.366957 0 0 1-13.534608-5.520695 18.565565 18.565565 0 0 1-5.609739-13.267479 44.432696 44.432696 0 0 0-44.78887-43.942956 44.432696 44.432696 0 0 0-44.833391 43.942956c0 4.986435-2.003478 9.794783-5.609739 13.267479a19.366957 19.366957 0 0 1-27.069218 0A18.610087 18.610087 0 0 1 267.130435 348.605217C267.130435 303.682783 304.39513 267.130435 350.252522 267.130435s83.122087 36.552348 83.122087 81.474782a18.966261 18.966261 0 0 1-19.144348 18.788174z m323.539479 0a19.366957 19.366957 0 0 1-13.534609-5.520695 18.565565 18.565565 0 0 1-5.609739-13.267479 44.432696 44.432696 0 0 0-44.833391-43.942956 44.432696 44.432696 0 0 0-44.78887 43.942956c0 4.986435-2.048 9.794783-5.609739 13.267479a19.366957 19.366957 0 0 1-27.113739 0 18.610087 18.610087 0 0 1-5.609739-13.267479c0-44.922435 37.309217-81.474783 83.122087-81.474782 45.857391 0 83.122087 36.552348 83.122086 81.474782a18.966261 18.966261 0 0 1-19.144347 18.788174z" fill="#7F184C" p-id="9651"></path><path d="M389.565217 787.18887a111.304348 58.724174 0 1 0 222.608696 0 111.304348 58.724174 0 1 0-222.608696 0Z" fill="#FC4C59" p-id="9652"></path><path d="M262.633739 455.724522C228.218435 455.724522 200.347826 490.896696 200.347826 534.26087h124.571826c0-43.364174-27.870609-78.536348-62.330435-78.536348zM805.843478 445.217391c-34.415304 0-62.285913 35.172174-62.285913 78.536348H868.173913C868.173913 480.389565 840.303304 445.217391 805.888 445.217391z" fill="#F9A880" p-id="9653"></path><path d="M378.434783 623.304348v25.243826c0 10.685217 9.438609 19.277913 21.058782 19.277913h225.01287c11.620174 0 21.058783-8.637217 21.058782-19.277913V623.304348H378.434783z" fill="#F2F2F2" p-id="9654"></path><path d="M350.252522 267.130435C304.39513 267.130435 267.130435 305.41913 267.130435 352.389565c0 10.863304 8.592696 19.678609 19.144348 19.678609 10.596174 0 19.144348-8.815304 19.144347-19.678609 0-25.377391 20.123826-45.946435 44.833392-45.946435 24.709565 0 44.78887 20.613565 44.788869 45.946435 0 10.863304 8.592696 19.678609 19.144348 19.678609 10.596174 0 19.144348-8.815304 19.144348-19.678609C433.374609 305.41913 396.109913 267.130435 350.297043 267.130435z m278.706087 85.25913c0-25.377391 20.079304-45.946435 44.788869-45.946435 24.709565 0 44.833391 20.613565 44.833392 45.946435 0 5.209043 2.003478 10.24 5.609739 13.890783a18.921739 18.921739 0 0 0 27.069217 0 19.901217 19.901217 0 0 0 5.609739-13.890783C756.869565 305.41913 719.60487 267.130435 673.747478 267.130435s-83.122087 38.288696-83.122087 85.25913c0 10.863304 8.592696 19.678609 19.144348 19.678609 10.596174 0 19.144348-8.815304 19.144348-19.678609z m-337.385739 278.349913c0 118.650435 94.074435 215.173565 209.697391 215.173565 115.667478 0 209.741913-96.52313 209.741913-215.173565a19.901217 19.901217 0 0 0-5.609739-13.890782 18.921739 18.921739 0 0 0-13.534609-5.787826H310.761739a19.411478 19.411478 0 0 0-19.144348 19.678608z m380.082087 19.634087c-9.572174 87.79687-82.320696 156.271304-170.384696 156.271305-88.019478 0-160.812522-68.474435-170.340174-156.271305h340.72487z" fill="#000000" p-id="9655"></path></svg>