<?xml version="1.0" standalone="no"?><!DOCTYPE svg PUBLIC "-//W3C//DTD SVG 1.1//EN" "http://www.w3.org/Graphics/SVG/1.1/DTD/svg11.dtd"><svg t="1714187531079" class="icon" viewBox="0 0 1024 1024" version="1.1" xmlns="http://www.w3.org/2000/svg" p-id="10252" width="128" height="128" xmlns:xlink="http://www.w3.org/1999/xlink"><path d="M891.829325 369.899147h45.976726v-78.051203c0-36.543057-29.989139-66.532196-66.532195-66.532195H638.31187c-54.51668 0-102.479441 26.017067-132.96509 66.532195-30.485648-40.515128-78.547711-66.532196-133.064391-66.532195H138.327386c-36.543057 0-66.532196 29.989139-66.532196 66.532195V907.419705c0 36.543057 29.989139 66.532196 66.532196 66.532196h244.480993c32.471683 31.975175 75.965865 50.048099 121.545384 50.048099 45.480217 0 88.47789-17.973623 121.545384-50.048099h244.480993c36.543057 0 66.532196-29.989139 66.532195-66.532196V802.954228h-45.976726" fill="#5ECEF4" p-id="10253"></path><path d="M202.57564 122.141195a11.618309 2.184639 90 1 0 4.369279 0 11.618309 2.184639 90 1 0-4.369279 0Z" fill="#E61F19" p-id="10254"></path><path d="M212.969223 120.6469a11.618309 2.184639 60 1 0 3.783906-2.184639 11.618309 2.184639 60 1 0-3.783906 2.184639Z" fill="#E61F19" p-id="10255"></path><path d="M221.286923 114.3137a11.618309 2.184639 30 1 0 2.184639-3.783906 11.618309 2.184639 30 1 0-2.184639 3.783906Z" fill="#E61F19" p-id="10256"></path><path d="M213.598138 102.38014a11.618309 2.184639 0 1 0 23.236618 0 11.618309 2.184639 0 1 0-23.236618 0Z" fill="#E61F19" p-id="10257"></path><path d="M212.65675 98.056656a2.184639 11.618309 60 1 0 20.123501-11.618308 2.184639 11.618309 60 1 0-20.123501 11.618308Z" fill="#E61F19" p-id="10258"></path><path d="M209.703574 94.870031a2.184639 11.618309 30 1 0 11.618309-20.123501 2.184639 11.618309 30 1 0-11.618309 20.123501Z" fill="#E61F19" p-id="10259"></path><path d="M203.270753 81.923972a11.618309 2.184639 90 1 0 4.369278 0 11.618309 2.184639 90 1 0-4.369278 0Z" fill="#E61F19" p-id="10260"></path><path d="M193.519966 85.482364a11.618309 2.184639 60 1 0 3.783906-2.18464 11.618309 2.184639 60 1 0-3.783906 2.18464Z" fill="#E61F19" p-id="10261"></path><path d="M186.807438 93.567607a11.618309 2.184639 30 1 0 2.18464-3.783906 11.618309 2.184639 30 1 0-2.18464 3.783906Z" fill="#E61F19" p-id="10262"></path><path d="M173.380915 101.685027a11.618309 2.184639 0 1 0 23.236618 0 11.618309 2.184639 0 1 0-23.236618 0Z" fill="#E61F19" p-id="10263"></path><path d="M177.492843 117.506277a2.184639 11.618309 60 1 0 20.123501-11.618309 2.184639 11.618309 60 1 0-20.123501 11.618309Z" fill="#E61F19" p-id="10264"></path><path d="M188.957118 129.350872a2.184639 11.618309 30 1 0 11.618308-20.123501 2.184639 11.618309 30 1 0-11.618308 20.123501Z" fill="#E61F19" p-id="10265"></path><path d="M274.768037 28.201707m-14.100853 0a14.100853 14.100853 0 1 0 28.201707 0 14.100853 14.100853 0 1 0-28.201707 0Z" fill="#2C65AF" p-id="10266"></path><path d="M190.858029 14.100853m-14.100853 0a14.100853 14.100853 0 1 0 28.201707 0 14.100853 14.100853 0 1 0-28.201707 0Z" fill="#E61F19" p-id="10267"></path><path d="M90.463926 139.519007c4.269977-2.184639 6.454616-6.553918 4.766485-9.632273L63.751746 68.915438c-1.588829-3.078355-6.355314-3.87277-10.625291-1.68813s-6.454616 6.553918-4.766486 9.632273L79.838635 137.830877c1.588829 3.177657 6.355314 3.87277 10.625291 1.68813z" fill="#DAB647" p-id="10268"></path><path d="M107.94104 84.704422c-2.184639-4.269977-6.553918-6.454616-9.632274-4.766486L37.337471 111.416602c-3.078355 1.588829-3.87277 6.355314-1.68813 10.625291 2.184639 4.269977 6.553918 6.454616 9.632273 4.766486l60.971295-31.478666c3.078355-1.588829 3.87277-6.355314 1.688131-10.625291z" fill="#DAB647" p-id="10269"></path><path d="M335.342126 76.958883c19.761055 0 35.847944 15.888285 35.847944 35.450737s-16.086889 35.450737-35.847944 35.450737c-19.761055 0-35.847944-15.888285-35.847944-35.450737s16.086889-35.450737 35.847944-35.450737z m0 61.567106c14.498061 0 26.414275-11.717611 26.414274-26.116369s-11.816912-26.116369-26.414274-26.116369c-14.498061 0-26.414275 11.717611-26.414275 26.116369s11.816912 26.116369 26.414275 26.116369z" fill="#E62A52" p-id="10270"></path><path d="M149.647789 709.213344V725.69744c0 6.951125 5.461598 12.512025 12.512025 12.512025h197.01474c6.951125 0 12.512025-5.461598 12.512025-12.512025v-16.484096c0-6.951125-5.461598-12.512025-12.512025-12.512025H162.656323c-7.050427 0-13.008534 5.5609-13.008534 12.512025z m209.030256-180.530644H162.656323c-6.951125 0-12.512025 5.461598-12.512025 12.512025v16.484096c0 6.951125 5.461598 12.512025 12.512025 12.512025h196.021722c6.951125 0 12.512025-5.461598 12.512025-12.512025v-16.484096c0-6.454616-6.057409-12.512025-12.512025-12.512025z m1.489527-168.018619H162.656323c-6.951125 0-12.512025 5.461598-12.512025 12.512025v16.484096c0 6.951125 5.461598 12.512025 12.512025 12.512025h198.007758c7.050427 0 12.512025-5.461598 12.512025-12.512025V373.176106c-0.496509-6.454616-5.958107-12.512025-13.008534-12.512025zM693.722265 528.6827H592.732351c-6.951125 0-12.512025 5.461598-12.512025 12.512025v16.484096c0 6.951125 5.461598 12.512025 12.512025 12.512025H693.722265c7.050427 0 12.512025-5.461598 12.512025-12.512025v-16.484096c0-6.454616-6.057409-12.512025-12.512025-12.512025z m96.521335-168.018619H592.235842c-6.951125 0-12.512025 5.461598-12.512025 12.512025v16.484096c0 6.951125 5.461598 12.512025 12.512025 12.512025h198.007758c7.050427 0 12.512025-5.461598 12.512025-12.512025V373.176106c0-6.454616-5.5609-12.512025-12.512025-12.512025z m0 0" fill="" p-id="10271"></path><path d="M479.131109 985.669511c-47.466253 0-92.549263-17.675718-127.503491-50.048099H113.104732c-44.884407 0-81.427463-36.543057-81.427463-81.427463V556.189294c0-8.242048 6.65322-14.895268 14.895268-14.895268s14.895268 6.65322 14.895267 14.895268v298.103957c0 28.499612 23.137316 51.636928 51.636928 51.636927h250.637704l4.369279 4.269977c29.989139 29.49263 69.411947 45.678821 111.019394 45.678821 41.21024 0 80.732351-16.285493 111.118697-45.778123l4.369279-4.170675h250.538401c28.499612 0 51.636928-23.137316 51.636928-51.636927V749.728472c0-8.242048 6.65322-14.895268 14.895268-14.895268s14.895268 6.65322 14.895268 14.895268v104.465477c0 44.884407-36.543057 81.427463-81.427464 81.427463H606.6346c-35.450737 32.372382-80.434445 50.048099-127.503491 50.048099zM46.671839 512.496509c-8.242048 0-14.895268-6.65322-14.895268-14.895268V359.968968c0-8.242048 6.65322-14.895268 14.895268-14.895267s14.895268 6.65322 14.895267 14.895267v137.632273c0 8.142746-6.752521 14.895268-14.895267 14.895268z" fill="" p-id="10272"></path><path d="M108.437548 548.046548c-8.242048 0-14.895268-6.65322-14.895267-14.895268V401.775019c0-8.242048 6.65322-14.895268 14.895267-14.895267s14.895268 6.65322 14.895268 14.895267v131.475563c0 8.142746-6.65322 14.795966-14.895268 14.795966zM108.437548 355.500388c-8.242048 0-14.895268-6.65322-14.895267-14.895268v-61.070597c0-8.242048 6.65322-14.895268 14.895267-14.895268s14.895268 6.65322 14.895268 14.895268v61.070597c0 8.242048-6.65322 14.895268-14.895268 14.895268z" fill="#FFFFFF" p-id="10273"></path><path d="M912.6827 331.568658c-8.242048 0-14.895268-6.65322-14.895268-14.895268v-78.051202c0-28.499612-23.137316-51.636928-51.636928-51.636928H613.188518c-47.962762 0-92.152056 22.044996-121.148177 60.574088l-11.916214 15.788984-11.916214-15.788984c-28.996121-38.529092-73.185415-60.574088-121.148177-60.574088H113.104732c-28.499612 0-51.636928 23.137316-51.636928 51.636928v61.666408c0 8.242048-6.65322 14.895268-14.895267 14.895267s-14.895268-6.65322-14.895268-14.895267v-61.666408c0-44.884407 36.543057-81.427463 81.427463-81.427463H347.159038c51.239721 0 98.705974 20.952676 133.064391 58.190845 34.259116-37.138867 81.82467-58.190846 132.965089-58.190845h233.061288c44.884407 0 81.427463 36.543057 81.427463 81.427463v78.051202c-0.099302 8.242048-6.752521 14.895268-14.994569 14.895268z" fill="" p-id="10274"></path><path d="M723.115593 765.914663l-2.482544-65.042669 69.01474 53.027153z" fill="#B28114" p-id="10275"></path><path d="M738.045617 677.460605L879.942901 488.208285l69.599628 52.183088-141.899271 189.254306z" fill="#FFF35C" p-id="10276"></path><path d="M985.173002 495.416602l-17.477114 23.038014-69.511249-52.530644 17.477114-23.038014c4.965089-7.050427 18.966641-5.958107 26.513577-1.489527l0.993018 0.993018 34.954228 26.513577c6.951125 4.965089 13.505043 17.973623 8.539953 25.024049l-1.489527 1.489527z" fill="#FF9D00" p-id="10277"></path><path d="M643.674166 696.701319h-51.041117c-6.951125 0-12.512025 5.461598-12.512025 12.512025V725.69744c0 6.951125 5.461598 12.512025 12.512025 12.512025h51.041117c7.050427 0 12.512025-5.461598 12.512025-12.512025v-16.484096c0-6.951125-5.958107-12.512025-12.512025-12.512025z" fill="" p-id="10278"></path><path d="M969.681924 469.200931l-17.477114 23.038014-69.511249-52.530644 17.477114-23.038014c4.965089-7.050427 18.966641-5.958107 26.513576-1.489527l0.993018 0.993018 34.954228 26.513577c6.951125 4.965089 13.505043 17.973623 8.539954 25.024049l-1.489527 1.489527z" fill="" p-id="10279"></path><path d="M723.600186 652.261784l141.898278-189.253312 69.599628 52.185073-141.898278 189.25232z" fill="" p-id="10280"></path><path d="M708.716835 740.791311l-2.482545-65.042669 69.01474 53.027153z" fill="" p-id="10281"></path><path d="M465.328161 238.72149h29.790536v722.916989h-29.790536z" fill="" p-id="10282"></path></svg>