<?xml version="1.0" standalone="no"?><!DOCTYPE svg PUBLIC "-//W3C//DTD SVG 1.1//EN" "http://www.w3.org/Graphics/SVG/1.1/DTD/svg11.dtd"><svg t="1714187612682" class="icon" viewBox="0 0 1024 1024" version="1.1" xmlns="http://www.w3.org/2000/svg" p-id="10563" xmlns:xlink="http://www.w3.org/1999/xlink" width="128" height="128"><path d="M526.8 950.6H200.3c-5.5 0-10-4.5-10-10V374.4c0-9 7.4-16.4 16.4-16.4H523.9c1.7 0 3.4 0.4 4.8 1.2 1-0.2 2.1-0.3 3.2-0.3h118.5L776.3 90c0.1-0.3 0.2-0.5 0.4-0.7l0.3-0.6 4.2-9c3.9-8.5 14-12.2 22.5-8.3l36 16.8c8.4 3.9 12.2 14 8.3 22.5 0 0 0 0.1-0.1 0.1l-4.3 9.1c0 0.1-0.1 0.1-0.1 0.2-0.1 0.1-0.1 0.3-0.2 0.4-0.1 0.2-0.2 0.4-0.3 0.7L731.7 358.8h113.9c9 0 16.4 7.4 16.4 16.4v564.5c0 5.5-4.5 10-10 10H531c-1.3 0.6-2.7 0.9-4.2 0.9z m-316.5-20h312.3c1.3-0.6 2.7-0.9 4.2-0.9H842V378.8H716c-3.4 0-6.6-1.7-8.4-4.6-1.8-2.9-2.1-6.5-0.6-9.6l117.3-250.4c0.3-1 0.7-2 1.4-2.9l2.9-6.2-30.5-14.3-3 6.4c-0.3 1-0.7 1.9-1.3 2.7L665.9 373.1c-1.6 3.5-5.2 5.8-9.1 5.8H533.7c-2.1 2.2-5 3.4-8.1 3.2-2.9-0.2-5.6-1.7-7.3-4.1h-308v552.6z m615.6-819.7z m5.4-4.5z m-36.4-8.9z m0.3-0.8z" fill="#322B2C" p-id="10564"></path><path d="M206.7 368h313.7c3.5 0 6.4 2.9 6.4 6.4v566.2H200.3V374.4c0-3.5 2.9-6.4 6.4-6.4z" fill="#CCE6E8" p-id="10565"></path><path d="M245.2 414.9h236.9c3.5 0 6.4 2.9 6.4 6.4v34c0 3.5-2.9 6.4-6.4 6.4H245.2c-3.5 0-6.4-2.9-6.4-6.4v-34c0-3.6 2.9-6.4 6.4-6.4zM245.2 516h236.9c3.5 0 6.4 2.9 6.4 6.4v1.1c0 3.5-2.9 6.4-6.4 6.4H245.2c-3.5 0-6.4-2.9-6.4-6.4v-1.1c0-3.5 2.9-6.4 6.4-6.4zM245.2 593.9h236.9c3.5 0 6.4 2.9 6.4 6.4v1.1c0 3.5-2.9 6.4-6.4 6.4H245.2c-3.5 0-6.4-2.9-6.4-6.4v-1.1c0-3.5 2.9-6.4 6.4-6.4zM245.2 671.9h236.9c3.5 0 6.4 2.9 6.4 6.4v1.1c0 3.5-2.9 6.4-6.4 6.4H245.2c-3.5 0-6.4-2.9-6.4-6.4v-1.1c0-3.5 2.9-6.4 6.4-6.4zM245.2 749.8h192.1c3.5 0 6.4 2.9 6.4 6.4v1.1c0 3.5-2.9 6.4-6.4 6.4H245.2c-3.5 0-6.4-2.9-6.4-6.4v-1.1c0-3.5 2.9-6.4 6.4-6.4z" fill="#B8BCBC" p-id="10566"></path><path d="M845.6 368.9H531.9c-3.5 0-6.4 2.9-6.4 6.4v564.5H852V375.2c0-3.5-2.9-6.3-6.4-6.3z" fill="#CCE6E8" p-id="10567"></path><path d="M807.1 415.6H570.2c-3.5 0-6.4 2.9-6.4 6.4v33.9c0 3.5 2.9 6.4 6.4 6.4h236.9c3.5 0 6.4-2.9 6.4-6.4V422c0-3.6-2.9-6.4-6.4-6.4zM807.1 516.4H570.2c-3.5 0-6.4 2.9-6.4 6.4v1.1c0 3.5 2.9 6.4 6.4 6.4h236.9c3.5 0 6.4-2.9 6.4-6.4v-1.1c0-3.5-2.9-6.4-6.4-6.4zM807.1 594.1H570.2c-3.5 0-6.4 2.9-6.4 6.4v1.1c0 3.5 2.9 6.4 6.4 6.4h236.9c3.5 0 6.4-2.9 6.4-6.4v-1.1c0-3.5-2.9-6.4-6.4-6.4zM807.1 671.8H570.2c-3.5 0-6.4 2.9-6.4 6.4v1.1c0 3.5 2.9 6.4 6.4 6.4h236.9c3.5 0 6.4-2.9 6.4-6.4v-1.1c0-3.5-2.9-6.4-6.4-6.4zM807.1 749.6H615c-3.5 0-6.4 2.9-6.4 6.4v1.1c0 3.5 2.9 6.4 6.4 6.4h192.1c3.5 0 6.4-2.9 6.4-6.4V756c0-3.6-2.9-6.4-6.4-6.4z" fill="#B8BCBC" p-id="10568"></path><path d="M522.5 368h1.3v572.6h-1.3z" fill="#B8BCBC" p-id="10569"></path><path d="M534.9 693.1c9 0.7 65.4-77.6 65.4-77.6l-48.4-22.3c0 0.1-22 92.1-17 99.9z" fill="#322B2C" p-id="10570"></path><path d="M551.4 594.3l5.3-11.1 48.4 22.3-5.4 11.1zM825.3 119.1l-35.9-16.8c-3.5-1.6-5-5.8-3.4-9.3l4.3-9.1c1.6-3.5 5.8-5 9.3-3.4l35.9 16.8c3.5 1.6 5 5.8 3.4 9.3l-4.3 9.1c-1.7 3.5-5.8 5-9.3 3.4z" fill="#F0B992" p-id="10571"></path><path d="M556.372 583.175l229.08-488.88 48.534 22.743-229.08 488.88z" fill="#F0DCDD" p-id="10572"></path></svg>