<?xml version="1.0" standalone="no"?><!DOCTYPE svg PUBLIC "-//W3C//DTD SVG 1.1//EN" "http://www.w3.org/Graphics/SVG/1.1/DTD/svg11.dtd"><svg t="1714187658082" class="icon" viewBox="0 0 1024 1024" version="1.1" xmlns="http://www.w3.org/2000/svg" p-id="10733" xmlns:xlink="http://www.w3.org/1999/xlink" width="128" height="128"><path d="M182.624152 53.337828a12.005932 2.263413 90 1 0 4.526826 0 12.005932 2.263413 90 1 0-4.526826 0Z" fill="#E61F19" p-id="10734"></path><path d="M193.359865 51.91693a12.005932 2.263413 60 1 0 3.920347-2.263414 12.005932 2.263413 60 1 0-3.920347 2.263414Z" fill="#E61F19" p-id="10735"></path><path d="M201.845409 45.302324a12.005932 2.263413 30 1 0 2.263414-3.920347 12.005932 2.263413 30 1 0-2.263414 3.920347Z" fill="#E61F19" p-id="10736"></path><path d="M194.039628 32.967108a12.005932 2.263413 0 1 0 24.011863 0 12.005932 2.263413 0 1 0-24.011863 0Z" fill="#E61F19" p-id="10737"></path><path d="M192.998573 28.657238a2.263413 12.005932 60 1 0 20.794883-12.005932 2.263413 12.005932 60 1 0-20.794883 12.005932Z" fill="#E61F19" p-id="10738"></path><path d="M189.98861 25.327528a2.263413 12.005932 30 1 0 12.005931-20.794884 2.263413 12.005932 30 1 0-12.005931 20.794884Z" fill="#E61F19" p-id="10739"></path><path d="M183.411426 12.005932a12.005932 2.263413 90 1 0 4.526826 0 12.005932 2.263413 90 1 0-4.526826 0Z" fill="#E61F19" p-id="10740"></path><path d="M173.368352 15.681923a12.005932 2.263413 60 1 0 3.920347-2.263413 12.005932 2.263413 60 1 0-3.920347 2.263413Z" fill="#E61F19" p-id="10741"></path><path d="M166.48212 24.011213a12.005932 2.263413 30 1 0 2.263414-3.920347 12.005932 2.263413 30 1 0-2.263414 3.920347Z" fill="#E61F19" p-id="10742"></path><path d="M152.707731 32.278243a12.005932 2.263413 0 1 0 24.011864 0 12.005932 2.263413 0 1 0-24.011864 0Z" fill="#E61F19" p-id="10743"></path><path d="M156.848659 48.599054a2.263413 12.005932 60 1 0 20.794884-12.005932 2.263413 12.005932 60 1 0-20.794884 12.005932Z" fill="#E61F19" p-id="10744"></path><path d="M168.648294 60.776042a2.263413 12.005932 30 1 0 12.005932-20.794884 2.263413 12.005932 30 1 0-12.005932 20.794884Z" fill="#E61F19" p-id="10745"></path><path d="M320.397139 30.802104m-14.564573 0a14.564573 14.564573 0 1 0 29.129146 0 14.564573 14.564573 0 1 0-29.129146 0Z" fill="#2C65AF" p-id="10746"></path><path d="M519.380696 162.178488m-14.564573 0a14.564573 14.564573 0 1 0 29.129146 0 14.564573 14.564573 0 1 0-29.129146 0Z" fill="#EF8218" p-id="10747"></path><path d="M97.401718 99.491779c2.263413 0 4.13319 1.771367 4.13319 4.133189v44.382584c0 2.263413-1.771367 4.13319-4.13319 4.133189-2.263413 0-4.13319-1.771367-4.13319-4.133189V103.624968c0.098409-2.361823 1.968186-4.13319 4.13319-4.133189z" fill="#E61F19" p-id="10748"></path><path d="M75.259631 121.732275h44.382584c2.263413 0 4.13319 1.771367 4.133189 4.13319 0 2.263413-1.771367 4.13319-4.133189 4.133189H75.259631c-2.263413 0-4.13319-1.771367-4.13319-4.133189 0-2.361823 1.869776-4.13319 4.13319-4.13319z" fill="#E61F19" p-id="10749"></path><path d="M445.770557 190.126722c4.231599-2.263413 6.396603-6.495012 4.822054-9.644109l-31.589377-61.21057c-1.672958-3.149097-6.396603-3.936371-10.726611-1.672958-4.231599 2.263413-6.396603 6.495012-4.822055 9.64411l31.589378 61.21057c1.574548 3.149097 6.396603 3.837962 10.726611 1.672957z" fill="#7CCBE2" p-id="10750"></path><path d="M463.287408 135.017527c-2.263413-4.231599-6.495012-6.396603-9.644109-4.822054l-61.21057 31.589378c-3.149097 1.672958-3.936371 6.396603-1.672958 10.726611s6.495012 6.396603 9.644109 4.822054l61.21057-31.589377c3.149097-1.672958 3.837962-6.396603 1.672958-10.726612z" fill="#7CCBE2" p-id="10751"></path><path d="M290.972765 135.706392m-29.522783 0a29.522783 29.522783 0 1 0 59.045566 0 29.522783 29.522783 0 1 0-59.045566 0Z" fill="#EC7677" p-id="10752"></path><path d="M914.789169 739.447304c54.42033-65.34376 36.116204-82.270155 2.165004-116.516584-26.472095-26.570505-48.023727-49.893503-114.843626 2.952279l112.678622 113.564305z" fill="#FF9D00" p-id="10753"></path><path d="M768.651393 655.110554c-5.707738 5.41251-11.710704 11.317067-18.008897 17.61526-1.180911 1.180911-176.546242 178.022381-176.546243 178.022381-24.897547 23.519817-66.229443 155.781885-51.960098 170.14964 14.269345 14.367754 144.071181-24.307091 168.083045-51.76328 0 0 175.660559-177.136698 177.136697-178.514428 6.199784-6.298194 12.104341-12.30116 17.615261-18.008897L768.651393 655.110554z" fill="#FA7E76" p-id="10754"></path><path d="M552.347803 826.342695V428.375581c39.855757-53.731465 144.464818-86.698573 223.881104-86.698573v207.840392l1.082502 0.885684c21.945269-10.82502 53.436237-18.894581 91.815855-8.26638-0.098409-154.010518-0.196819-336.559726-0.196818-336.559725s-270.920738 12.005932-374.447297 124.979781c-103.32974-112.973849-374.250479-125.07819-374.250479-125.078191s-0.393637 546.86035-0.393637 591.046115c0 95.16177 83.254248 90.930171 83.254248 90.930172 83.254248 11.415476 145.744139 34.148019 145.744139 34.148019-3.641143-0.393637 36.509842 24.405501 124.487734 94.472905 0 0.098409 8.561607-109.234297 79.022649-189.733085z" fill="#7dc5eb" p-id="10755"></path><path d="M892.745491 734.330021L757.235917 597.737946l12.793206-10.136156c33.557563-26.570505 59.931249-37.493934 82.860611-34.344837 21.846859 2.952278 36.411432 17.516851 50.28714 31.589377l2.263413 2.263414c17.61526 17.71367 32.770289 32.967108 34.935294 54.715557 2.263413 21.74845-8.955244 45.760314-37.592344 80.105151l-10.037746 12.399569zM801.323273 600.690224l89.257214 90.044488c15.351847-20.272311 22.043678-35.033702 20.961176-45.858723-1.180911-11.415476-11.809113-22.240496-26.668914-37.100297l-2.263414-2.361823c-12.005932-12.104341-21.453222-21.650041-33.459154-23.224589-11.907522-1.672958-27.653007 4.428417-47.826908 18.500944zM512.492046 1011.844181c-7.675924 0-17.320033-1.082502-23.519817-7.380696-6.691831-6.691831-7.282286-16.926396-7.183877-24.011863 0.393637-23.12618 10.82502-61.407389 20.46913-89.552442 7.675924-22.437315 23.027771-62.194663 38.674845-77.251282 5.806147-5.904557 174.282829-175.758968 176.251015-177.825562l0.098409-0.09841c6.79024-6.79024 12.793206-12.694797 18.304125-17.910488l10.332974-9.840928 136.395258 137.576169-9.840928 10.234565c-6.002966 6.199784-11.809113 12.20275-17.71367 18.304125l-0.098409 0.098409c-1.869776 1.869776-168.771909 170.248048-176.84147 178.317609-15.056619 16.729577-53.436237 31.786196-75.086278 39.363711-33.852791 11.809113-67.410354 19.485037-87.584256 20.075492-0.688865-0.196819-1.672958-0.098409-2.657051-0.098409z m-1.476139-29.227555c3.641143 0.098409 10.529793-0.098409 22.240497-2.263413 13.875708-2.460232 31.097331-6.79024 48.318954-12.30116 41.922352-13.383662 68.197629-27.653007 74.987869-35.32893l0.688865-0.688865c7.085468-7.183877 174.08601-175.562149 177.136698-178.514428 2.558641-2.558641 5.018873-5.117282 7.577514-7.675923l-96.244272-96.933138c-2.361823 2.361823-4.822055 4.822055-7.479105 7.380696-4.231599 4.231599-169.362365 170.838504-176.447833 178.022381l-0.393637 0.393637c-7.380696 6.987059-21.74845 35.32893-34.836884 76.070371-5.707738 17.71367-10.234565 35.132112-12.891615 49.106229-2.361823 11.907522-2.75546 18.99299-2.657051 22.732543z" fill="" p-id="10756"></path><path d="M469.585602 1011.844181h-40.150985l-3.345915-9.840928c-7.774333-22.437315-30.113239-45.661904-64.654895-67.115126-26.078458-16.237531-49.893503-25.586412-51.76328-26.373686-3.050688-1.082502-63.080346-22.338906-141.41413-33.262336-7.774333 0.098409-41.627124-1.082502-67.508764-25.586412-19.583446-18.599353-29.522783-45.563495-29.522782-79.908332 0-43.792128 0.393637-585.633605 0.393637-591.046115v-15.253438l15.253437 0.688865c2.75546 0.098409 69.870586 3.247506 150.763012 20.46913 47.728499 10.136155 90.339716 23.12618 126.45592 38.478027 39.954166 16.827986 72.232409 37.001888 96.539501 59.734431 24.208682-22.732543 56.585334-42.906445 96.441091-59.83284 36.214614-15.450256 78.727421-28.341872 126.45592-38.478028 80.892425-17.123214 147.909143-20.272311 150.763012-20.469129l15.253437-0.688865v15.253438s0.098409 182.549208 0.196819 336.559726V534.362371l-18.402535-5.117282c-28.341872-7.774333-55.79806-5.314101-81.58129 7.282287l-8.16797 4.03478-13.974117-10.825021V329.867895c-34.836884 1.771367-73.019683 9.5457-107.069293 21.945269-39.265301 14.269345-70.067405 33.655973-87.485847 54.813967v398.45916l-3.641143 4.13319c-67.508764 76.956054-68.099219 149.483691-62.391481 185.796714l2.558641 16.827986zM169.830946 846.122959l1.27932 0.196819c83.844704 11.415476 146.137776 33.9512 148.696417 34.935293l0.196819 0.098409c1.082502 0.393637 27.456188 10.628202 56.782152 28.833918 25.488003 15.843894 45.169858 32.67188 58.750338 50.188731 0.393637-14.95821 2.263413-32.179833 6.79024-50.582368 10.037746-40.544622 30.605285-79.416286 61.308979-115.53249V396.786203l2.85387-3.837962c25.78323-34.738475 70.657861-56.486925 103.821786-68.492856 42.020761-15.253438 90.044488-24.011863 131.671612-24.011864h14.564573v202.132654c17.320033-5.510919 38.871664-8.758426 63.769211-5.117282-0.098409-122.716368-0.098409-257.930714-0.196818-303.100572-24.307091 1.869776-74.79105 6.888649-131.179566 18.894581-102.345648 21.846859-177.727153 56.585334-217.878138 100.377462l-10.726611 11.710704-10.726611-11.710704c-40.249394-43.988947-115.729309-78.727421-218.271776-100.475871-56.290106-12.005932-106.577246-16.926396-130.785928-18.894581-0.098409 89.650851-0.393637 535.93692-0.393637 575.497449 0 25.980049 6.79024 45.661904 20.272311 58.553519 19.189809 18.402535 46.547588 17.812079 47.728499 17.812079h1.672958z" fill="" p-id="10757"></path><path d="M417.428685 843.3675l-22.929361-15.843894c-74.889459-51.960098-191.504452-64.064439-198.885148-64.753304-2.558641-0.098409-8.660016-0.787274-14.859801-4.231599-6.101375-3.345915-16.434349-11.710704-16.434349-29.621192V300.345112h14.564573c41.725533 0 89.74926 8.758426 131.671612 24.011863 33.163926 12.104341 78.038556 33.754382 103.821787 68.492857l2.853869 3.837962 0.196818 446.679706zM197.680771 733.444338l0.196818 0.098409c1.37773 0.098409 32.770289 2.952278 74.791051 12.990025 45.169858 10.726611 83.943113 24.995956 115.53249 42.709626V406.528721c-17.418442-21.157994-48.318955-40.544622-87.485847-54.813967-34.04961-12.399569-72.330818-20.173902-107.069293-21.945268v398.951207c0 3.247506 0.492046 4.428417 3.149097 4.625236l0.885684 0.098409z" fill="" p-id="10758"></path><path d="M451.084658 460.555414c-8.069561 0-14.564573-6.495012-14.564573-14.564573v-69.575358c0-8.069561 6.495012-14.564573 14.564573-14.564573s14.564573 6.495012 14.564573 14.564573v69.575358c0 8.069561-6.495012 14.564573-14.564573 14.564573zM451.084658 706.775424c-8.069561 0-14.564573-6.495012-14.564573-14.564573V534.067144c0-8.069561 6.495012-14.564573 14.564573-14.564573s14.564573 6.495012 14.564573 14.564573v158.143707c0 8.069561-6.495012 14.564573-14.564573 14.564573z" fill="#FFFFFF" p-id="10759"></path></svg>