
<?xml version="1.0" standalone="no"?><!DOCTYPE svg PUBLIC "-//W3C//DTD SVG 1.1//EN" "http://www.w3.org/Graphics/SVG/1.1/DTD/svg11.dtd"><svg t="1714187948942" class="icon" viewBox="0 0 1024 1024" version="1.1" xmlns="http://www.w3.org/2000/svg" p-id="11226" xmlns:xlink="http://www.w3.org/1999/xlink" width="128" height="128"><path d="M674.86481 420.48675l-467.550649 0.020466 0 40.699957 467.550649-0.039909L674.86481 420.48675zM674.86481 562.842968 207.154525 562.842968l0 40.670282 467.710284 0L674.86481 562.842968zM207.154525 745.858212l345.499895 0 0-40.708144-345.499895 0.037862L207.154525 745.858212zM674.86481 278.139741 207.154525 278.139741l0 40.670282 467.710284 0L674.86481 278.139741zM796.876678 908.540362 105.479845 908.540362 105.479845 115.458615l691.39581 0L796.875654 542.508851l40.670282-40.671305L837.545936 74.788334 64.709279 74.788334 64.709279 949.170734l772.836657 0.039909L837.545936 766.194376l-40.670282 40.670282L796.875654 908.540362zM952.348612 550.370913l-41.921785-41.901319c-9.253758-9.293667-24.267706-9.293667-33.521464 0L692.458513 692.956352c-3.454682 3.495614-5.202489 7.824199-6.076392 12.311397L635.067408 809.129234c-4.309142 11.675924 5.0449 22.160719 16.740266 16.720823l103.802134-51.314713c4.488221-0.873903 8.837272-2.622734 12.291954-6.076392L952.348612 583.932286C961.60237 574.678528 961.60237 559.664579 952.348612 550.370913zM666.126798 803.131637c-5.818519 2.740414-11.060917-2.90005-8.339946-8.339946l38.803771-64.144926 33.660634 33.6811L666.126798 803.131637zM751.14103 751.658312c-3.962242-3.957125-6.161327-6.15314-7.312546-7.303336 0.199545 0.197498 0.059352 0.053212-1.067308-1.077541l-25.140587-25.140587c-4.626367-4.646833-3.931542-3.933589-8.400321-8.420787l133.847427-133.887336 42.219567 41.663912L751.14103 751.658312zM927.187559 575.552431l-25.140587 25.180496-41.305755-42.576701 24.545022-24.545022c4.626367-4.646833 12.133342-4.646833 16.760732 0l25.161053 25.180496C931.834392 563.398624 931.834392 570.905598 927.187559 575.552431z" p-id="11227" fill="#dbdbdb"></path></svg>