<?xml version="1.0" standalone="no"?><!DOCTYPE svg PUBLIC "-//W3C//DTD SVG 1.1//EN" "http://www.w3.org/Graphics/SVG/1.1/DTD/svg11.dtd"><svg t="1709208152658" class="icon" viewBox="0 0 1024 1024" version="1.1" xmlns="http://www.w3.org/2000/svg" p-id="4220" xmlns:xlink="http://www.w3.org/1999/xlink" width="200" height="200"><path d="M613.316249 509.579623l224.87829-224.871064c28.213646-28.220871 28.213646-73.962379 0-102.176025-28.220871-28.213646-73.955154-28.213646-102.18325 0L511.140224 407.396373 286.26916 182.532534c-28.220871-28.213646-73.955154-28.213646-102.18325 0-28.213646 28.213646-28.213646 73.962379 0 102.176025L408.956975 509.579623l-224.871065 224.87829c-28.213646 28.220871-28.213646 73.962379 0 102.18325a72.047753 72.047753 0 0 0 51.088012 21.16204 72.047753 72.047753 0 0 0 51.088013-21.16204l224.871064-224.87829 224.87829 224.87829a72.047753 72.047753 0 0 0 51.088012 21.16204 72.033303 72.033303 0 0 0 51.088013-21.16204c28.213646-28.220871 28.213646-73.962379 0-102.18325L613.316249 509.579623z" fill="#2c2c2c" p-id="4221"></path></svg>